<?xml version="1.0"?>
<svg xmlns="http://www.w3.org/2000/svg" id="Outline" viewBox="0 0 512 512" width="512" height="512"><path d="M24,80a8,8,0,0,0,8-8V32H72a8,8,0,0,0,0-16H24a8,8,0,0,0-8,8V72A8,8,0,0,0,24,80Z"/><path d="M488,16H440a8,8,0,0,0,0,16h40V72a8,8,0,0,0,16,0V24A8,8,0,0,0,488,16Z"/><path d="M72,480H32V440a8,8,0,0,0-16,0v48a8,8,0,0,0,8,8H72a8,8,0,0,0,0-16Z"/><path d="M488,432a8,8,0,0,0-8,8v40H440a8,8,0,0,0,0,16h48a8,8,0,0,0,8-8V440A8,8,0,0,0,488,432Z"/><path d="M160,152V56a8,8,0,0,0-8-8H56a8,8,0,0,0-8,8v96a8,8,0,0,0,8,8h96A8,8,0,0,0,160,152Zm-16-8H64V64h80Z"/><path d="M88,128h32a8,8,0,0,0,8-8V88a8,8,0,0,0-8-8H88a8,8,0,0,0-8,8v32A8,8,0,0,0,88,128Zm8-32h16v16H96Z"/><path d="M464,56a8,8,0,0,0-8-8H360a8,8,0,0,0-8,8v96a8,8,0,0,0,8,8h96a8,8,0,0,0,8-8Zm-16,88H368V64h80Z"/><path d="M392,128h32a8,8,0,0,0,8-8V88a8,8,0,0,0-8-8H392a8,8,0,0,0-8,8v32A8,8,0,0,0,392,128Zm8-32h16v16H400Z"/><path d="M152,352H56a8,8,0,0,0-8,8v96a8,8,0,0,0,8,8h96a8,8,0,0,0,8-8V360A8,8,0,0,0,152,352Zm-8,96H64V368h80Z"/><path d="M88,432h32a8,8,0,0,0,8-8V392a8,8,0,0,0-8-8H88a8,8,0,0,0-8,8v32A8,8,0,0,0,88,432Zm8-32h16v16H96Z"/><path d="M216,88a8,8,0,0,0,8-8V56a8,8,0,0,0-8-8H184a8,8,0,0,0,0,16h24V80A8,8,0,0,0,216,88Z"/><path d="M208,152h40a8,8,0,0,0,0-16H216V112a8,8,0,0,0-8-8H192V88a8,8,0,0,0-16,0v24a8,8,0,0,0,8,8h16v24A8,8,0,0,0,208,152Z"/><path d="M264,48H248a8,8,0,0,0,0,16h16a8,8,0,0,0,0-16Z"/><path d="M320,48H296a8,8,0,0,0-8,8V80H264a8,8,0,0,0,0,16h32a8,8,0,0,0,8-8V64h16a8,8,0,0,0,0-16Z"/><path d="M280,112a8,8,0,0,0-8,8v24a8,8,0,0,0,16,0V120A8,8,0,0,0,280,112Z"/><path d="M320,88v24h-8a8,8,0,0,0,0,16h16a8,8,0,0,0,8-8V88a8,8,0,0,0-16,0Z"/><path d="M232,112a8,8,0,0,0,8,8h8a8,8,0,0,0,0-16h-8A8,8,0,0,0,232,112Z"/><path d="M440,400a8,8,0,0,0,0-16H408V368h16a8,8,0,0,0,8-8V312a8,8,0,0,0-16,0v40H344V288a8,8,0,0,0-8-8H312v-8a8,8,0,0,0-8-8H264V224a8,8,0,0,0-16,0v8H232V192a8,8,0,0,0-16,0v48a8,8,0,0,0,8,8h24v24a8,8,0,0,0,8,8h40v8a8,8,0,0,0,8,8h24v16H312a8,8,0,0,0,0,16h16V448a8,8,0,0,0,16,0V432h16v16a8,8,0,0,0,16,0V432h16v24a8,8,0,0,0,16,0V400Zm-96-32h48v48H344Z"/><path d="M216,448V424a8,8,0,0,0-8-8h-8V384h48a8,8,0,0,0,8-8V344a8,8,0,0,0-8-8h-8V312a8,8,0,0,0-8-8H216V272a8,8,0,0,0-16,0v32H184a8,8,0,0,0-8,8v32a8,8,0,0,0,16,0V320h32v16h-8a8,8,0,0,0-8,8v24H192a8,8,0,0,0-8,8v40a8,8,0,0,0,0,16h16v16H184a8,8,0,0,0,0,16h32a8,8,0,0,0,0-16Zm8-96h16v16H224Z"/><path d="M304,400H272a8,8,0,0,0-8,8v40H248a8,8,0,0,0,0,16h40a8,8,0,0,0,0-16h-8V416h16v8a8,8,0,0,0,16,0V408A8,8,0,0,0,304,400Z"/><path d="M248,424V408a8,8,0,0,0-16,0v16a8,8,0,0,0,16,0Z"/><path d="M304,352H280a8,8,0,0,0,0,16h24a8,8,0,0,0,0-16Z"/><path d="M280,336a8,8,0,0,0,8-8V304a8,8,0,0,0-8-8H256a8,8,0,0,0,0,16h16v16A8,8,0,0,0,280,336Z"/><path d="M464,280a8,8,0,0,0-16,0v24a8,8,0,0,0,16,0Z"/><path d="M456,328a8,8,0,0,0-8,8v32a8,8,0,0,0,16,0V336A8,8,0,0,0,456,328Z"/><path d="M368,336h24a8,8,0,0,0,0-16H376V304a8,8,0,0,0-16,0v24A8,8,0,0,0,368,336Z"/><path d="M120,216a8,8,0,0,0-8-8H96V184a8,8,0,0,0-8-8H56a8,8,0,0,0,0,16H80v24a8,8,0,0,0,8,8h24A8,8,0,0,0,120,216Z"/><path d="M136,192h40a8,8,0,0,0,8-8V144a8,8,0,0,0-16,0v32H136a8,8,0,0,0,0,16Z"/><path d="M48,232v32a8,8,0,0,0,16,0V232a8,8,0,0,0-16,0Z"/><path d="M88,240a8,8,0,0,0,0,16h16a8,8,0,0,0,0-16Z"/><path d="M184,272V256h8a8,8,0,0,0,0-16h-8V216a8,8,0,0,0-8-8H144a8,8,0,0,0,0,16h24v16H136a8,8,0,0,0-8,8v24h-8a8,8,0,0,0-8,8v40H96V296a8,8,0,0,0-8-8H56a8,8,0,0,0,0,16H80v16H56a8,8,0,0,0,0,16h96a8,8,0,0,0,0-16H128V288h16v8a8,8,0,0,0,16,0V280a8,8,0,0,0-8-8h-8V256h24v16a8,8,0,0,0,16,0Z"/><path d="M264,184h16a8,8,0,0,0,0-16H264a8,8,0,0,0,0,16Z"/><path d="M296,216h16a8,8,0,0,0,0-16H296a8,8,0,0,0,0,16Z"/><path d="M352,192v32a8,8,0,0,0,8,8h16a8,8,0,0,0,0-16h-8V192h32a8,8,0,0,0,0-16H344v-8a8,8,0,0,0-8-8H320V144a8,8,0,0,0-16,0v24a8,8,0,0,0,8,8h16v8a8,8,0,0,0,8,8Z"/><path d="M288,248h40a8,8,0,0,0,0-16H288a8,8,0,0,0,0,16Z"/><path d="M464,184a8,8,0,0,0-8-8H432a8,8,0,0,0,0,16h16v16H424a8,8,0,0,0,0,16h24v16H416a8,8,0,0,0,0,16h40a8,8,0,0,0,8-8Z"/><path d="M352,264h8v8a8,8,0,0,0,16,0V256a8,8,0,0,0-8-8H352a8,8,0,0,0,0,16Z"/><path d="M408,296v-8h16a8,8,0,0,0,0-16H400a8,8,0,0,0-8,8v16a8,8,0,0,0,16,0Z"/><path d="M440,456V432h16a8,8,0,0,0,0-16H432a8,8,0,0,0-8,8v32a8,8,0,0,0,16,0Z"/><circle cx="368" cy="392" r="8"/></svg>
